<?xml version="1.0" encoding="iso-8859-1"?>
<!-- Generator: Adobe Illustrator 19.0.0, SVG Export Plug-In . SVG Version: 6.00 Build 0)  -->
<svg version="1.1" id="Layer_1" xmlns="http://www.w3.org/2000/svg" xmlns:xlink="http://www.w3.org/1999/xlink" x="0px" y="0px"
	 viewBox="0 0 480.001 480.001" style="enable-background:new 0 0 480.001 480.001;" xml:space="preserve">
<path style="fill:#E65039;" d="M8,400h32l27.248-40.872C70.216,354.672,75.216,352,80.56,352h62.872
	c5.352,0,10.344,2.672,13.312,7.128l22.504,33.752c2.968,4.448,7.968,7.12,13.312,7.12h70.872c5.352,0,10.344-2.672,13.312-7.128
	l22.504-33.752c2.968-4.448,7.968-7.12,13.312-7.12h62.872c5.352,0,10.344,2.672,13.312,7.128L416,400h40l16-56v-64l-40-128H152
	l-48,96l-80,32l-8,40L8,400z"/>
<g>
	<circle style="fill:#822D20;" cx="112" cy="424" r="48"/>
	<circle style="fill:#822D20;" cx="344" cy="424" r="48"/>
	<path style="fill:#822D20;" d="M40,400H8l8-48h2.448c7.824,0,14.496,5.656,15.784,13.368L40,400z"/>
	<path style="fill:#822D20;" d="M456,400h-40l12.688-44.392c1.96-6.872,8.24-11.608,15.384-11.608H472L456,400z"/>
</g>
<g>
	<polygon style="fill:#EFD8D5;" points="136,248 184,152 152,152 104,248 	"/>
	<polygon style="fill:#EFD8D5;" points="288,248 168,248 216,152 288,152 	"/>
	<polygon style="fill:#EFD8D5;" points="432,248 320,248 320,152 400,152 	"/>
</g>
<g>
	<path style="fill:#FDC567;" d="M392,312h-24v-16c0-8.84,7.16-16,16-16h24v16C408,304.84,400.84,312,392,312z"/>
	<path style="fill:#FDC567;" d="M48,272l-24,8l-8,40h16c8.84,0,16-7.16,16-16V272z"/>
	<path style="fill:#FDC567;" d="M472,344h-24v-48c0-8.84,7.16-16,16-16h8V344z"/>
</g>
<path d="M442.88,160h8.632c3.68,0,6.864,2.496,7.768,6.064l4.968,19.88c0.904,3.632,4.16,6.056,7.744,6.056
	c0.64,0,1.296-0.072,1.944-0.24c4.288-1.072,6.896-5.416,5.824-9.704l-4.968-19.88C472.12,151.48,462.536,144,451.504,144H432h-32
	h-14.24l1.784-8.912c2.616-1.32,4.456-3.96,4.456-7.088c0-1.992-0.8-3.76-2.008-5.16l1.856-9.264
	c0.864-4.336-1.944-8.544-6.272-9.416c-4.336-0.856-8.544,1.944-9.416,6.272L374.24,120h-15.68l1.288-6.432
	c0.864-4.336-1.944-8.544-6.272-9.416c-4.336-0.856-8.544,1.944-9.416,6.272L342.24,120H217.76l-1.912-9.568
	c-0.856-4.328-5.032-7.144-9.416-6.272c-4.328,0.864-7.144,5.08-6.272,9.416l1.28,6.424h-15.68l-1.912-9.568
	c-0.864-4.328-5.04-7.144-9.416-6.272c-4.328,0.864-7.144,5.08-6.272,9.416l1.856,9.264C168.8,124.24,168,126.008,168,128
	c0,3.128,1.84,5.768,4.456,7.08l1.784,8.92H152c-3.032,0-5.8,1.712-7.16,4.424l-29.736,59.472L119.408,152H128c4.424,0,8-3.584,8-8
	s-3.576-8-8-8h-8.592c-8.312,0-15.32,6.488-15.952,14.776l-7.048,91.648l-75.376,30.144c-0.304,0.12-0.56,0.312-0.84,0.464
	c-0.248,0.136-0.512,0.248-0.744,0.416c-0.344,0.24-0.64,0.528-0.936,0.824c-0.184,0.176-0.392,0.336-0.56,0.528
	c-0.296,0.344-0.528,0.736-0.76,1.128c-0.112,0.192-0.264,0.36-0.36,0.56c-0.296,0.608-0.528,1.264-0.664,1.944l-8,40
	c-0.008,0.056,0.016,0.112,0,0.168l-0.128,0.6l-8,80c-0.056,0.568,0.12,1.104,0.184,1.656c0.056,0.488,0.016,0.968,0.16,1.44
	c0.192,0.648,0.584,1.2,0.944,1.776c0.216,0.352,0.304,0.768,0.576,1.096c0.032,0.032,0.072,0.048,0.104,0.08
	c0.032,0.032,0.04,0.08,0.064,0.112c0.472,0.52,1.096,0.84,1.68,1.216c0.336,0.216,0.592,0.528,0.952,0.688
	C5.728,407.736,6.848,408,8,408h32c1.08,0,2.12-0.272,3.088-0.68c0.136-0.056,0.272-0.088,0.4-0.152
	c0.904-0.44,1.696-1.064,2.384-1.816c0.064-0.072,0.168-0.104,0.232-0.176c0.056-0.072,0.072-0.168,0.128-0.24
	c0.136-0.176,0.304-0.312,0.432-0.496l27.248-40.872c1.48-2.232,3.968-3.568,6.648-3.568h62.872c2.68,0,5.168,1.336,6.656,3.56
	l22.496,33.752c1.064,1.6,2.328,3.024,3.704,4.304c0.064,0.304,0.008,0.616,0.112,0.92l8,24c1.128,3.344,4.248,5.464,7.6,5.464
	c0.832,0,1.688-0.136,2.528-0.416c4.184-1.4,6.456-5.928,5.056-10.12L195.096,408h68.344c8.04,0,15.504-4,19.968-10.688
	l22.496-33.752c1.488-2.224,3.976-3.56,6.656-3.56h62.872c2.68,0,5.168,1.336,6.656,3.56l26.664,39.992l7.656,22.976
	c1.12,3.352,4.24,5.472,7.592,5.472c0.832,0,1.688-0.136,2.528-0.416c4.184-1.4,6.456-5.928,5.056-10.12L427.096,408H456
	c3.568,0,6.712-2.368,7.696-5.8l16-56c0.2-0.712,0.304-1.456,0.304-2.2v-64c0-0.808-0.128-1.616-0.368-2.384L442.88,160z M456,336
	v-40c0-4.408,3.584-8,8-8v48H456z M328,160h66.232l26.664,80H328V160z M371.04,136l-1.6,8h-15.68l1.6-8H371.04z M339.04,136l-1.6,8
	H320h-32h-65.44l-1.6-8H339.04z M280,240h-99.056l40-80H280V240z M204.64,136l1.6,8h-15.68l-1.6-8H204.64z M156.944,160h14.112
	l-40,80h-14.112L156.944,160z M30.936,286.12L40,283.096V304c0,4.408-3.584,8-8,8h-6.24L30.936,286.12z M17.448,392l5.144-30.856
	c1.944,1.168,3.352,3.16,3.752,5.544L30.552,392H17.448z M375.44,344h-62.88c-6.272,0-12.144,2.488-16.56,6.736V336
	c0-4.416-3.576-8-8-8s-8,3.584-8,8v24h-16c-4.424,0-8,3.584-8,8s3.576,8,8,8h14.384l-8.288,12.44
	c-1.488,2.224-3.976,3.56-6.656,3.56h-70.88c-2.68,0-5.168-1.336-6.656-3.56L177.616,376H232c4.424,0,8-3.584,8-8s-3.576-8-8-8h-64
	c-0.328,0-0.608,0.152-0.928,0.184l-3.664-5.496c-4.352-6.528-11.584-10.432-19.408-10.616V336c0-4.416-3.576-8-8-8s-8,3.584-8,8v8
	H80.56c-8.04,0-15.504,4-19.968,10.688L44.56,378.736l-2.448-14.672c-1.752-10.568-10.16-18.424-20.536-19.776L23.208,328H32
	c13.232,0,24-10.768,24-24v-28.184L105.544,256H128v48c0,4.416,3.576,8,8,8s8-3.584,8-8v-54.112L188.944,160h14.112l-42.208,84.424
	c-1.24,2.48-1.112,5.424,0.352,7.784c1.456,2.352,4.024,3.792,6.8,3.792h112v48c0,4.416,3.576,8,8,8s8-3.584,8-8v-56v-88h16v88
	c0,4.416,3.576,8,8,8h112c2.568,0,4.984-1.232,6.496-3.328c1.504-2.088,1.912-4.768,1.096-7.208L411.096,160h15.024l35.088,112.28
	C449.296,273.688,440,283.72,440,296v40.36c-8.936,1.552-16.456,8.128-19.008,17.04l-7.936,27.76L395.4,354.68
	C390.944,348,383.48,344,375.44,344z M426.608,392l9.776-34.2c0.968-3.416,4.128-5.8,7.688-5.8H448h13.392l-11.424,40H426.608z"/>
<circle cx="112" cy="424" r="16"/>
<circle cx="344" cy="424" r="16"/>
<path d="M256,272h-16c-4.424,0-8,3.584-8,8s3.576,8,8,8h16c4.424,0,8-3.584,8-8S260.424,272,256,272z"/>
<path d="M104,296H88c-4.424,0-8,3.584-8,8s3.576,8,8,8h16c4.424,0,8-3.584,8-8S108.424,296,104,296z"/>
<path d="M416,296v-16c0-4.416-3.576-8-8-8h-24c-13.232,0-24,10.768-24,24v16c0,4.416,3.576,8,8,8h24
	C405.232,320,416,309.232,416,296z M400,296c0,4.408-3.584,8-8,8h-16v-8c0-4.408,3.584-8,8-8h16V296z"/>
<path d="M232,192h24c4.424,0,8-3.584,8-8s-3.576-8-8-8h-24c-4.424,0-8,3.584-8,8S227.576,192,232,192z"/>
<path d="M256,208h-40c-4.424,0-8,3.584-8,8s3.576,8,8,8h40c4.424,0,8-3.584,8-8S260.424,208,256,208z"/>
<path d="M352,192h16c4.424,0,8-3.584,8-8s-3.576-8-8-8h-16c-4.424,0-8,3.584-8,8S347.576,192,352,192z"/>
<path d="M376,208h-24c-4.424,0-8,3.584-8,8s3.576,8,8,8h24c4.424,0,8-3.584,8-8S380.424,208,376,208z"/>
<path d="M168,464h-16.888C161.52,453.824,168,439.664,168,424c0-30.88-25.128-56-56-56s-56,25.12-56,56
	c0,15.664,6.48,29.824,16.888,40H32c-4.424,0-8,3.584-8,8s3.576,8,8,8h136c4.424,0,8-3.584,8-8S172.424,464,168,464z M72,424
	c0-22.056,17.944-40,40-40s40,17.944,40,40s-17.944,40-40,40S72,446.056,72,424z"/>
<path d="M424,464h-40.888C393.52,453.824,400,439.664,400,424c0-30.88-25.128-56-56-56s-56,25.12-56,56
	c0,15.664,6.48,29.824,16.888,40H288c-4.424,0-8,3.584-8,8s3.576,8,8,8h136c4.424,0,8-3.584,8-8S428.424,464,424,464z M304,424
	c0-22.056,17.944-40,40-40s40,17.944,40,40s-17.944,40-40,40S304,446.056,304,424z"/>
<path d="M256,464h-56c-4.424,0-8,3.584-8,8s3.576,8,8,8h56c4.424,0,8-3.584,8-8S260.424,464,256,464z"/>
<path d="M104,16h32c4.424,0,8-3.584,8-8s-3.576-8-8-8h-32c-4.424,0-8,3.584-8,8S99.576,16,104,16z"/>
<path d="M168,16h16c4.424,0,8-3.584,8-8s-3.576-8-8-8h-16c-4.424,0-8,3.584-8,8S163.576,16,168,16z"/>
<path d="M232,80h32c4.424,0,8-3.584,8-8s-3.576-8-8-8h-32c-4.424,0-8,3.584-8,8S227.576,80,232,80z"/>
<path d="M296,80h16c4.424,0,8-3.584,8-8s-3.576-8-8-8h-16c-4.424,0-8,3.584-8,8S291.576,80,296,80z"/>
<path d="M8,128h24c4.424,0,8-3.584,8-8s-3.576-8-8-8H8c-4.424,0-8,3.584-8,8S3.576,128,8,128z"/>
<path d="M64,128h16c4.424,0,8-3.584,8-8s-3.576-8-8-8H64c-4.424,0-8,3.584-8,8S59.576,128,64,128z"/>
<path d="M392,40h32c4.424,0,8-3.584,8-8s-3.576-8-8-8h-32c-4.424,0-8,3.584-8,8S387.576,40,392,40z"/>
<path d="M456,40h16c4.424,0,8-3.584,8-8s-3.576-8-8-8h-16c-4.424,0-8,3.584-8,8S451.576,40,456,40z"/>
<g>
</g>
<g>
</g>
<g>
</g>
<g>
</g>
<g>
</g>
<g>
</g>
<g>
</g>
<g>
</g>
<g>
</g>
<g>
</g>
<g>
</g>
<g>
</g>
<g>
</g>
<g>
</g>
<g>
</g>
</svg>
