<?xml version="1.0" standalone="no"?>
<!DOCTYPE svg PUBLIC "-//W3C//DTD SVG 20010904//EN"
 "http://www.w3.org/TR/2001/REC-SVG-20010904/DTD/svg10.dtd">
<svg version="1.0" xmlns="http://www.w3.org/2000/svg"
 width="300.000000pt" height="300.000000pt" viewBox="0 0 300.000000 300.000000"
 preserveAspectRatio="xMidYMid meet">
<metadata>
Created by potrace 1.10, written by Peter Selinger 2001-2011
</metadata>
<g transform="translate(0.000000,300.000000) scale(0.100000,-0.100000)"
fill="#000000" stroke="none">
<path d="M1650 1696 c-3 -2 -57 -6 -120 -7 -63 -1 -137 -6 -165 -11 -27 -4
-81 -13 -120 -19 -83 -12 -145 -29 -162 -44 -6 -5 -31 -26 -55 -45 -24 -19
-91 -83 -150 -142 -59 -60 -110 -108 -114 -108 -4 0 -19 14 -33 31 -50 58
-165 58 -199 0 -14 -26 -23 -29 -83 -34 -85 -7 -156 -42 -205 -102 -21 -25
-43 -45 -49 -45 -18 0 -82 -68 -99 -105 -43 -91 -74 -438 -45 -520 15 -44 16
-49 18 -68 0 -8 21 -28 44 -45 42 -30 131 -53 197 -51 29 1 20 5 -35 14 l-40
8 40 12 c40 13 40 13 -38 14 -92 1 -116 14 -155 80 -27 45 -27 48 -25 206 3
158 14 248 37 293 13 25 12 37 15 -114 2 -85 25 -114 89 -113 49 0 48 2 -27
30 -33 12 -33 13 -28 59 4 29 0 63 -9 90 -12 34 -12 50 -3 79 12 37 52 98 79
118 24 18 24 7 1 -23 -28 -36 -29 -115 -1 -167 11 -21 18 -42 15 -47 -3 -5 3
-14 14 -19 16 -9 21 -7 26 9 3 11 11 20 16 20 6 0 6 7 -1 19 -11 21 -13 132
-4 169 4 13 17 25 31 28 16 4 21 9 13 14 -9 6 -9 9 0 15 12 7 39 -21 40 -41 0
-6 -7 -17 -15 -24 -8 -7 -15 -19 -15 -27 0 -11 -4 -11 -20 -3 -18 9 -20 8 -20
-15 0 -29 7 -31 38 -9 48 34 63 105 25 125 -13 7 -23 16 -23 21 0 4 -6 8 -14
8 -35 0 -76 -167 -58 -234 9 -32 8 -36 -9 -36 -17 0 -19 8 -19 68 0 75 25 163
60 212 19 27 50 44 35 20 -3 -6 4 -10 18 -10 24 0 52 -22 41 -32 -3 -3 7 -8
21 -12 14 -4 25 -13 25 -22 0 -17 21 -15 27 2 7 20 -43 79 -76 90 -48 16 -19
24 84 24 64 0 84 3 89 15 3 8 15 15 26 15 12 0 18 5 15 10 -3 6 -18 10 -33 10
-23 0 -24 2 -12 14 8 8 45 17 82 21 61 6 67 4 82 -17 20 -28 20 -42 2 -35 -9
4 -16 -1 -19 -11 -4 -18 -6 -15 -21 31 -7 24 -29 21 -41 -5 -6 -11 -25 -29
-43 -39 l-33 -17 48 -4 c26 -3 59 0 73 5 14 5 42 11 62 13 31 3 52 19 145 112
193 193 200 199 284 216 297 61 662 62 1002 1 101 -17 132 -31 188 -82 49 -44
54 -76 6 -39 -35 27 -105 60 -147 69 -21 5 -28 1 -39 -24 -11 -25 -11 -48 -2
-118 13 -104 14 -144 3 -137 -5 3 -12 61 -16 130 -7 135 -10 152 -31 160 -43
16 -387 28 -650 23 -417 -9 -364 6 -527 -157 -76 -76 -138 -142 -138 -148 0
-6 12 -13 28 -15 15 -3 1 -3 -31 -1 -44 3 -58 1 -54 -9 2 -8 35 -13 108 -14
57 -1 205 -9 329 -18 124 -8 301 -18 393 -21 l169 -6 -54 -30 c-29 -17 -66
-43 -83 -58 -16 -15 -75 -51 -130 -80 -55 -29 -129 -76 -164 -104 -60 -48
-105 -80 -177 -126 -17 -11 -59 -62 -95 -112 -35 -51 -94 -135 -131 -187 -71
-98 -78 -111 -53 -111 8 0 15 4 15 8 0 5 28 46 62 93 68 92 100 137 154 216
19 28 56 65 82 82 l47 31 5 -33 c5 -29 7 -30 13 -10 5 12 44 51 89 88 142 115
357 231 598 320 110 41 138 47 240 54 63 5 99 9 79 10 l-36 1 -16 137 c-9 76
-15 139 -13 140 7 8 120 -37 155 -61 32 -23 39 -34 45 -73 13 -98 9 -119 -31
-153 -31 -25 -34 -30 -14 -24 17 4 21 3 16 -6 -4 -7 -17 -9 -31 -6 -27 7 -44
-16 -44 -61 0 -37 16 -53 52 -53 88 0 144 91 66 107 -24 5 -27 8 -15 15 9 4
26 25 38 45 15 24 24 32 27 22 10 -32 36 -49 75 -49 33 0 37 2 28 14 -6 8 -25
19 -41 26 -37 15 -38 27 -2 42 l27 11 -30 8 c-41 12 -70 2 -84 -28 -7 -14 -14
-23 -18 -20 -3 4 -1 12 5 20 8 9 7 29 -3 72 -8 33 -14 63 -15 67 0 4 21 -15
46 -42 l47 -50 107 0 c123 0 137 -6 191 -88 18 -26 53 -69 78 -95 45 -47 46
-49 46 -115 0 -63 -1 -67 -22 -64 -30 4 -43 -24 -48 -106 l-4 -67 9 55 c13 82
26 109 50 107 15 -1 20 -8 20 -28 0 -14 3 -46 6 -70 6 -41 4 -45 -15 -45 -15
0 -23 8 -27 26 -3 14 -8 30 -10 35 -5 12 3 -60 10 -90 2 -11 5 -26 5 -34 2
-22 31 8 31 32 0 31 6 17 14 -30 4 -29 3 -43 -5 -43 -6 0 -9 7 -5 15 3 8 1 15
-4 15 -6 0 -10 -13 -10 -30 0 -16 5 -30 10 -30 16 0 12 -26 -6 -41 -15 -12
-16 -11 -10 9 5 13 3 22 -3 22 -6 0 -11 8 -11 19 0 10 -6 34 -14 52 l-15 34 2
-57 c1 -42 6 -58 16 -58 12 0 12 -3 0 -17 -10 -13 -13 -35 -9 -78 4 -47 7 -55
12 -35 6 19 10 22 17 12 11 -18 21 7 21 54 0 23 5 34 14 34 15 0 31 34 22 48
-3 4 -1 24 3 43 4 18 4 72 -1 119 -4 47 -12 127 -17 178 -6 71 -13 100 -29
120 -12 15 -47 62 -77 105 -78 109 -96 118 -220 115 l-100 -3 -50 51 c-27 28
-66 70 -84 92 -42 50 -85 72 -216 110 -124 37 -145 41 -259 47 -50 3 -127 8
-171 10 -45 3 -83 4 -85 1z m265 -135 c88 -6 175 -13 193 -16 l32 -6 0 -126 0
-126 -110 5 c-61 3 -116 10 -123 16 -14 12 -39 15 -87 11 -26 -2 -20 -4 25 -9
41 -4 9 -6 -100 -8 -88 0 -304 -4 -480 -7 -176 -4 -337 -3 -357 2 l-37 8 99
116 99 116 93 12 c245 32 417 35 753 12z m0 -292 c184 -1 224 -4 170 -10 -38
-5 -135 -29 -214 -54 -80 -24 -146 -43 -148 -41 -2 2 8 11 22 20 59 39 8 56
-179 62 -265 8 -339 13 -350 25 -8 9 47 10 224 5 129 -3 343 -7 475 -7z"/>
<path d="M1590 1539 c-58 -10 -125 -18 -150 -18 -38 -1 -42 -3 -30 -15 13 -12
30 -11 120 5 58 10 134 25 170 33 95 21 20 18 -110 -5z"/>
<path d="M2100 1492 c0 -29 -2 -32 -24 -26 -36 9 -69 -19 -106 -87 -31 -59
-34 -94 -4 -51 51 73 82 107 104 112 32 8 60 54 42 72 -9 9 -12 5 -12 -20z"/>
<path d="M1376 1453 c10 -7 28 -13 40 -13 29 0 49 -21 64 -64 6 -19 22 -42 36
-51 35 -22 40 -14 9 15 -15 14 -25 35 -25 50 0 38 -32 63 -92 70 -44 6 -48 5
-32 -7z"/>
<path d="M2589 1324 c55 -17 69 -30 53 -46 -16 -16 -15 -44 2 -71 17 -25 35
-96 29 -113 -4 -12 -109 82 -106 94 1 4 5 15 8 25 11 27 -18 21 -46 -9 l-24
-26 35 -27 c67 -51 107 -98 112 -133 3 -18 2 -34 -3 -36 -10 -4 -109 -101
-129 -126 -14 -18 -14 -19 10 -6 65 33 149 102 164 134 32 67 11 223 -34 251
-8 5 -5 11 9 22 26 17 27 58 4 68 -10 4 -43 8 -73 10 l-55 3 44 -14z"/>
<path d="M2700 1250 c0 -8 6 -21 13 -29 25 -29 47 -101 47 -153 0 -99 -61
-173 -187 -230 -31 -14 -42 -23 -31 -26 10 -2 53 12 95 32 58 26 85 44 105 73
15 21 33 44 39 52 23 27 5 160 -31 230 -21 43 -50 72 -50 51z"/>
<path d="M450 1222 c0 -29 55 -42 79 -19 11 10 12 7 5 -13 -15 -41 -11 -175 4
-175 7 0 17 -7 22 -15 6 -10 7 9 3 52 -4 45 -2 77 7 98 12 28 11 32 -14 55
-19 18 -38 25 -67 25 -21 0 -39 -4 -39 -8z"/>
<path d="M2078 1219 c-37 -4 -75 -12 -85 -19 -17 -11 -17 -11 0 -6 13 4 18 1
15 -10 -2 -9 -26 -24 -54 -34 -76 -26 -98 -41 -53 -34 35 6 69 -12 69 -37 0
-13 -46 -22 -75 -15 -28 7 -33 -5 -10 -24 22 -18 61 -4 108 39 23 21 58 48 77
59 l34 21 -29 -2 c-24 -2 -31 2 -33 21 -3 18 1 22 21 22 25 0 57 -27 57 -48 0
-7 -7 -12 -17 -12 -9 0 -42 -26 -73 -57 -51 -52 -96 -82 -197 -132 -18 -9 -35
-22 -38 -30 -10 -25 61 -5 128 36 69 42 232 193 240 223 10 37 -12 47 -85 39z"/>
<path d="M602 1195 c-7 -15 -8 -25 -2 -25 14 0 13 -91 -1 -146 -11 -42 -10
-48 10 -67 23 -24 26 -18 11 33 -13 45 6 158 31 186 27 29 24 44 -9 44 -21 0
-32 -7 -40 -25z"/>
<path d="M1036 1151 c-7 -11 96 -20 109 -9 5 5 5 8 0 9 -6 0 -31 2 -57 5 -25
2 -49 0 -52 -5z"/>
<path d="M400 1119 c0 -23 -12 -42 -54 -84 -35 -36 -50 -58 -45 -66 6 -11 9
-10 14 3 4 9 18 21 33 27 38 16 72 70 72 114 0 20 -4 37 -10 37 -5 0 -10 -14
-10 -31z"/>
<path d="M1482 1142 c-32 -3 -33 -4 -15 -18 16 -13 16 -15 2 -24 -9 -5 -27
-19 -40 -30 -15 -13 -5 -10 28 9 29 17 71 35 94 41 67 18 26 31 -69 22z"/>
<path d="M2169 1130 c-16 -10 -3 -23 58 -55 40 -22 54 -13 27 16 -28 31 -68
49 -85 39z"/>
<path d="M1722 1066 c-38 -41 -40 -47 -32 -77 12 -39 20 -49 20 -22 0 10 15
37 33 59 19 21 37 48 41 58 6 19 6 19 -12 3 -26 -24 -39 -21 -17 3 10 11 16
20 13 20 -3 0 -24 -20 -46 -44z"/>
<path d="M1838 1088 c-29 -25 -48 -63 -48 -100 0 -21 -4 -38 -10 -38 -5 0 -10
7 -10 16 0 14 -3 14 -15 4 -8 -7 -15 -19 -15 -26 0 -23 45 -16 69 10 13 14 36
30 52 36 35 15 36 21 8 38 -16 10 -20 21 -17 43 3 16 4 29 3 29 -1 0 -8 -6
-17 -12z"/>
<path d="M2865 1080 c-5 -15 0 -26 17 -39 13 -11 24 -18 25 -17 1 1 -2 19 -8
39 -11 41 -24 48 -34 17z"/>
<path d="M2115 1070 c3 -5 12 -10 19 -10 7 0 32 -13 54 -30 46 -33 52 -35 52
-20 0 14 -90 70 -113 70 -10 0 -15 -4 -12 -10z"/>
<path d="M2301 1034 c-25 -32 -61 -142 -101 -309 -56 -237 -84 -315 -129 -359
l-41 -40 -162 1 c-691 4 -1076 12 -1217 27 -85 9 -155 16 -157 16 -2 0 -4 -4
-4 -10 0 -5 26 -10 58 -10 31 -1 100 -7 152 -15 64 -9 176 -14 340 -13 135 0
403 -3 595 -7 255 -6 361 -5 392 4 65 18 95 55 126 158 14 50 33 96 42 103 13
11 15 6 16 -36 0 -68 22 -183 42 -220 20 -39 54 -61 91 -59 39 2 60 31 80 112
10 37 25 76 34 87 16 18 16 18 -8 12 -19 -6 -21 -5 -10 3 8 6 23 8 33 5 11 -3
39 2 65 11 43 17 46 17 59 -1 12 -17 13 -16 8 11 -5 27 -1 33 38 59 64 42 73
60 47 96 -25 35 -34 36 -75 12 -45 -28 -143 -62 -159 -56 -7 3 -17 24 -21 47
-8 38 -9 31 -19 -65 -9 -84 -14 -106 -24 -99 -10 6 -11 13 -1 34 7 14 8 34 4
44 -12 27 -12 44 2 87 14 42 9 80 -10 73 -7 -2 -14 -16 -17 -30 l-5 -27 -32
20 c-34 20 -46 11 -15 -12 13 -10 16 -21 11 -48 -4 -19 -7 -27 -8 -18 -4 55
-54 97 -65 54 -3 -11 -5 -55 -4 -96 0 -41 3 -61 5 -45 2 17 7 37 10 45 3 8 6
24 7 34 1 11 7 21 14 23 18 7 16 -52 -3 -71 -22 -22 -18 -27 10 -14 14 6 25
15 25 21 0 5 9 -1 20 -14 l19 -24 1 23 c0 12 6 22 15 22 14 0 11 -23 -6 -46
-5 -6 -6 -13 -3 -17 3 -3 2 -16 -2 -29 -8 -21 -9 -20 -14 12 -4 31 -8 35 -35
35 -21 0 -31 -5 -33 -19 -4 -18 -3 -19 13 -3 24 25 27 21 10 -13 -14 -28 -14
-33 0 -52 8 -13 15 -34 15 -48 0 -20 -2 -22 -11 -10 -8 12 -9 10 -7 -8 2 -18
13 -27 41 -37 20 -7 37 -9 37 -5 0 5 -7 10 -15 12 -12 2 -11 7 5 28 10 14 22
21 26 17 9 -9 -24 -117 -35 -117 -17 0 -71 58 -72 77 0 16 -1 16 -8 -2 -8 -19
-9 -19 -19 5 -35 86 -41 331 -11 460 l13 55 6 -40 5 -40 8 33 c23 110 80 137
102 49 4 -15 11 -27 16 -27 5 0 6 -6 3 -14 -7 -17 15 -130 23 -122 4 3 10 27
14 53 5 37 3 54 -9 73 -9 14 -19 44 -22 67 -6 40 -6 41 14 28 19 -12 25 -11
60 16 22 16 51 29 64 29 21 0 22 2 12 15 -7 8 -25 15 -41 15 -15 0 -40 5 -54
10 -28 11 -65 -1 -65 -21 0 -6 7 -6 20 1 25 13 40 5 40 -21 0 -14 -7 -19 -29
-19 -23 0 -30 6 -35 26 -7 27 -48 74 -65 74 -5 0 -19 -11 -30 -26z m77 -74
c12 -24 22 -53 22 -65 0 -15 -5 -11 -18 15 -23 47 -58 48 -89 1 -31 -46 -29
-17 3 48 32 63 50 64 82 1z m302 -313 c0 -39 -120 -106 -232 -131 -25 -6 -28
-4 -28 21 0 26 5 30 79 52 44 13 97 34 118 47 43 27 63 30 63 11z m-277 -212
c4 -16 4 -25 1 -18 -3 7 -18 -3 -38 -24 l-33 -36 5 34 c4 29 6 31 13 14 6 -16
8 -13 8 13 1 43 20 81 31 61 4 -8 10 -27 13 -44z"/>
<path d="M2831 1001 c-6 -11 -14 -46 -16 -78 -12 -138 -16 -161 -34 -221 -15
-50 -16 -61 -5 -51 8 6 16 10 18 8 1 -2 8 -40 14 -83 12 -79 27 -107 65 -128
39 -21 82 54 71 124 l-7 42 -13 -45 c-12 -38 -20 -76 -23 -102 -1 -4 -12 0
-27 9 -14 9 -23 23 -20 30 3 8 -2 30 -11 51 -21 49 -23 289 -4 386 14 70 11
94 -8 58z"/>
<path d="M160 989 c0 -26 24 -68 34 -58 3 3 -3 23 -14 44 -18 35 -20 36 -20
14z"/>
<path d="M2897 953 c-4 -3 -7 -24 -7 -46 0 -51 9 -43 14 11 4 44 3 46 -7 35z"/>
<path d="M591 923 c-1 -38 -25 -45 -36 -10 -4 13 -8 17 -11 10 -3 -7 8 -39 24
-71 16 -31 47 -97 68 -146 28 -67 39 -84 44 -70 6 15 13 9 38 -36 18 -30 32
-48 32 -39 0 9 -11 33 -25 53 -46 69 -94 182 -121 291 -11 44 -12 46 -13 18z"/>
<path d="M1722 892 c2 -9 31 -25 70 -38 37 -12 78 -30 90 -38 23 -16 69 -21
82 -9 3 4 -33 20 -80 35 -48 16 -92 35 -98 42 -6 8 -24 16 -39 19 -21 3 -27 1
-25 -11z"/>
<path d="M2332 898 c-13 -13 -15 -131 -3 -162 7 -18 9 -17 22 12 9 20 16 27
21 19 4 -7 7 11 7 38 0 39 -2 46 -10 30 -8 -16 -8 -15 -4 8 6 30 -1 67 -14 67
-4 0 -12 -5 -19 -12z"/>
<path d="M710 858 c-33 -18 -35 -41 -10 -108 19 -53 20 -53 15 -15 -3 22 -8
50 -11 63 -4 14 -2 22 5 22 7 0 30 -39 52 -87 50 -112 74 -156 85 -160 5 -1
28 27 52 62 42 65 62 80 62 48 0 -22 -101 -195 -116 -200 -6 -2 -27 18 -47 43
-21 26 -37 43 -37 37 0 -16 63 -106 77 -110 6 -2 25 15 41 39 40 59 192 326
192 338 0 24 -52 34 -190 37 -107 3 -152 1 -170 -9z m287 -34 l32 -5 -28 -50
c-15 -28 -40 -57 -57 -65 -16 -8 -45 -34 -65 -56 l-35 -42 -47 98 c-26 54 -47
104 -47 111 0 22 134 26 247 9z"/>
<path d="M1665 772 c-60 -9 -164 -14 -260 -13 -132 1 -157 -1 -140 -11 24 -15
259 -14 328 2 24 5 87 12 141 16 53 4 95 8 94 9 -14 11 -80 10 -163 -3z"/>
<path d="M155 697 c-21 -21 -33 -41 -29 -48 4 -7 12 0 20 20 17 40 34 46 87
33 23 -6 67 -13 97 -16 218 -20 257 -31 285 -86 8 -16 25 -35 37 -41 21 -11
21 -12 3 -25 -14 -11 -15 -14 -4 -14 24 0 40 -21 28 -37 -14 -16 -53 -17 -79
-1 -18 12 -18 13 8 25 l27 13 -30 -7 c-51 -13 -127 -5 -210 21 -100 31 -214
73 -237 86 -32 18 -20 -10 20 -50 34 -34 49 -40 168 -69 160 -38 348 -61 366
-43 9 9 8 19 -5 44 -50 94 -96 162 -118 173 -24 13 -204 41 -336 52 -61 6 -63
5 -98 -30z"/>
<path d="M1387 678 c-162 -7 -195 -12 -230 -30 -47 -23 -187 -154 -187 -174 0
-7 10 -20 22 -28 42 -30 396 -18 623 19 113 19 190 56 226 110 26 38 27 40 7
43 -26 5 -34 -4 -19 -22 10 -12 8 -18 -11 -30 -71 -47 -184 -70 -428 -87 -198
-15 -280 -13 -327 6 -28 11 -33 11 -20 1 23 -18 21 -26 -7 -26 -27 0 -42 15
-26 25 5 3 10 14 10 24 0 28 35 54 61 46 14 -5 19 -4 15 4 -13 20 14 49 68 76
53 26 58 26 238 25 100 -1 191 1 201 5 24 10 21 25 -5 23 -13 0 -108 -5 -211
-10z"/>
<path d="M1640 670 c0 -5 17 -12 38 -15 20 -3 45 -10 54 -16 10 -5 28 -9 40
-8 17 0 10 7 -27 24 -52 25 -105 32 -105 15z"/>
<path d="M100 620 c0 -6 7 -24 15 -40 8 -16 14 -38 12 -49 -1 -11 3 -20 8 -21
19 -1 16 47 -5 84 -23 37 -30 44 -30 26z"/>
<path d="M1530 595 c-13 -14 -32 -25 -42 -25 -10 0 -18 -4 -18 -9 0 -11 39 -3
58 12 13 10 36 47 29 47 -2 0 -14 -11 -27 -25z"/>
<path d="M1839 534 c-8 -10 -45 -33 -84 -52 l-70 -34 45 6 c50 8 99 35 118 66
17 27 10 37 -9 14z"/>
<path d="M230 505 c0 -9 79 -45 97 -45 10 1 3 7 -17 16 -57 26 -80 34 -80 29z"/>
<path d="M745 462 c-7 -18 2 -32 21 -32 8 0 14 -4 14 -9 0 -10 62 -52 68 -46
2 2 -19 25 -47 52 -35 34 -52 45 -56 35z"/>
<path d="M1490 430 l-55 -7 55 -1 c30 0 64 3 75 8 20 9 20 9 0 8 -11 -1 -45
-4 -75 -8z"/>
<path d="M1040 398 c0 -7 27 -11 75 -10 51 0 189 13 193 17 3 2 -57 3 -132 2
-75 -1 -136 -5 -136 -9z"/>
<path d="M1562 358 c32 -9 450 -9 465 0 6 4 -101 7 -238 7 -138 0 -240 -3
-227 -7z"/>
</g>
</svg>
